<svg width="264" height="42" viewBox="0 0 264 42" fill="none" xmlns="http://www.w3.org/2000/svg">
<ellipse cx="126.5" cy="34" rx="8.5" ry="8" fill="url(#paint0_linear_863_46)"/>
<path d="M16.6537 41C13.4171 41 10.2933 40.6058 7.28248 39.8173C4.30927 38.9913 1.88178 37.94 0 36.6635L3.66947 28.4409C5.43834 29.5673 7.47066 30.506 9.76643 31.2569C12.0998 31.9702 14.4144 32.3269 16.7102 32.3269C18.2532 32.3269 19.4952 32.1955 20.4361 31.9327C21.377 31.6323 22.0544 31.2569 22.4684 30.8063C22.9201 30.3182 23.1459 29.755 23.1459 29.1168C23.1459 28.2157 22.7319 27.5023 21.9039 26.9766C21.0759 26.451 20.0033 26.0192 18.6861 25.6813C17.3688 25.3434 15.901 25.0055 14.2827 24.6676C12.702 24.3297 11.1025 23.8979 9.48416 23.3723C7.90347 22.8466 6.4545 22.1708 5.13725 21.3448C3.82001 20.4812 2.7474 19.3736 1.91941 18.022C1.09143 16.6328 0.67744 14.8869 0.67744 12.7843C0.67744 10.419 1.31724 8.27885 2.59685 6.36401C3.9141 4.44918 5.87115 2.9098 8.468 1.74588C11.0649 0.58196 14.3015 0 18.178 0C20.7748 0 23.3152 0.300367 25.7992 0.901101C28.3208 1.46429 30.5601 2.30907 32.5171 3.43544L29.0735 11.7143C27.1917 10.7005 25.3287 9.94963 23.4846 9.46154C21.6404 8.9359 19.8528 8.67308 18.1215 8.67308C16.5785 8.67308 15.3365 8.84203 14.3956 9.17995C13.4547 9.48031 12.7773 9.89331 12.3633 10.419C11.9493 10.9446 11.7423 11.5453 11.7423 12.2212C11.7423 13.0847 12.1375 13.7793 12.9278 14.3049C13.7558 14.793 14.8284 15.206 16.1457 15.544C17.5005 15.8443 18.9683 16.1635 20.549 16.5014C22.1673 16.8393 23.7669 17.2711 25.3475 17.7967C26.9659 18.2848 28.4337 18.9606 29.7509 19.8242C31.0681 20.6502 32.1219 21.7578 32.9123 23.147C33.7403 24.4986 34.1543 26.207 34.1543 28.272C34.1543 30.5623 33.4956 32.6836 32.1784 34.636C30.8988 36.5508 28.9606 38.0902 26.3637 39.2541C23.8045 40.418 20.5678 41 16.6537 41Z" fill="white"/>
<path d="M59.0198 41C55.896 41 52.9981 40.5119 50.3259 39.5357C47.6914 38.522 45.3957 37.0952 43.4386 35.2555C41.5192 33.4158 40.0138 31.2569 38.9224 28.7788C37.8309 26.2633 37.2852 23.5037 37.2852 20.5C37.2852 17.4963 37.8309 14.7555 38.9224 12.2775C40.0138 9.7619 41.5192 7.58425 43.4386 5.7445C45.3957 3.90476 47.6914 2.4968 50.3259 1.5206C52.9981 0.506868 55.896 0 59.0198 0C62.6704 0 65.9259 0.638279 68.7862 1.91484C71.6841 3.19139 74.0928 5.03114 76.0122 7.43407L68.8991 13.8544C67.6195 12.3526 66.2081 11.2074 64.6651 10.419C63.1597 9.6305 61.4661 9.23627 59.5843 9.23627C57.966 9.23627 56.4793 9.49909 55.1245 10.0247C53.7696 10.5504 52.6029 11.3201 51.6244 12.3338C50.6835 13.31 49.9308 14.4927 49.3662 15.8819C48.8393 17.2711 48.5759 18.8104 48.5759 20.5C48.5759 22.1896 48.8393 23.7289 49.3662 25.1181C49.9308 26.5073 50.6835 27.7088 51.6244 28.7225C52.6029 29.6987 53.7696 30.4496 55.1245 30.9753C56.4793 31.5009 57.966 31.7637 59.5843 31.7637C61.4661 31.7637 63.1597 31.3695 64.6651 30.581C66.2081 29.7926 67.6195 28.6474 68.8991 27.1456L76.0122 33.5659C74.0928 35.9313 71.6841 37.7711 68.7862 39.0852C65.9259 40.3617 62.6704 41 59.0198 41Z" fill="white"/>
<path d="M80.996 40.2115V0.788461H99.061C102.674 0.788461 105.779 1.37042 108.376 2.53434C111.01 3.69826 113.043 5.38782 114.473 7.60302C115.903 9.78068 116.618 12.3713 116.618 15.375C116.618 18.3411 115.903 20.913 114.473 23.0907C113.043 25.2683 111.01 26.9579 108.376 28.1593C105.779 29.3233 102.674 29.9052 99.061 29.9052H87.2058L92.1737 25.0618V40.2115H80.996ZM92.1737 26.2445L87.2058 21.1195H98.3836C100.717 21.1195 102.448 20.6126 103.577 19.5989C104.744 18.5852 105.327 17.1772 105.327 15.375C105.327 13.5353 104.744 12.1085 103.577 11.0948C102.448 10.081 100.717 9.57418 98.3836 9.57418H87.2058L92.1737 4.44918V26.2445Z" fill="white"/>
<path d="M158.976 41C155.815 41 152.898 40.4931 150.226 39.4794C147.554 38.4657 145.22 37.0389 143.226 35.1992C141.269 33.3219 139.744 31.1442 138.653 28.6662C137.561 26.1882 137.016 23.4661 137.016 20.5C137.016 17.5339 137.561 14.8118 138.653 12.3338C139.744 9.85577 141.269 7.69689 143.226 5.85714C145.22 3.97985 147.554 2.53434 150.226 1.5206C152.898 0.506868 155.815 0 158.976 0C162.175 0 165.092 0.506868 167.726 1.5206C170.398 2.53434 172.713 3.97985 174.67 5.85714C176.627 7.69689 178.151 9.85577 179.243 12.3338C180.372 14.8118 180.936 17.5339 180.936 20.5C180.936 23.4661 180.372 26.207 179.243 28.7225C178.151 31.2006 176.627 33.3594 174.67 35.1992C172.713 37.0389 170.398 38.4657 167.726 39.4794C165.092 40.4931 162.175 41 158.976 41ZM158.976 31.7637C160.482 31.7637 161.874 31.5009 163.154 30.9753C164.471 30.4496 165.6 29.6987 166.541 28.7225C167.519 27.7088 168.272 26.5073 168.799 25.1181C169.364 23.7289 169.646 22.1896 169.646 20.5C169.646 18.7729 169.364 17.2335 168.799 15.8819C168.272 14.4927 167.519 13.31 166.541 12.3338C165.6 11.3201 164.471 10.5504 163.154 10.0247C161.874 9.49909 160.482 9.23627 158.976 9.23627C157.471 9.23627 156.059 9.49909 154.742 10.0247C153.462 10.5504 152.333 11.3201 151.355 12.3338C150.414 13.31 149.661 14.4927 149.097 15.8819C148.57 17.2335 148.306 18.7729 148.306 20.5C148.306 22.1896 148.57 23.7289 149.097 25.1181C149.661 26.5073 150.414 27.7088 151.355 28.7225C152.333 29.6987 153.462 30.4496 154.742 30.9753C156.059 31.5009 157.471 31.7637 158.976 31.7637Z" fill="white"/>
<path d="M186.791 40.2115V0.788461H195.993L217.784 27.033H213.437V0.788461H224.389V40.2115H215.187L193.396 13.967H197.743V40.2115H186.791Z" fill="white"/>
<path d="M242.548 16.0508H260.895V24.386H242.548V16.0508ZM243.338 31.5948H264V40.2115H232.273V0.788461H263.266V9.40522H243.338V31.5948Z" fill="white"/>
<path d="M16.6537 41C13.4171 41 10.2933 40.6058 7.28248 39.8173C4.30927 38.9913 1.88178 37.94 0 36.6635L3.66947 28.4409C5.43834 29.5673 7.47066 30.506 9.76643 31.2569C12.0998 31.9702 14.4144 32.3269 16.7102 32.3269C18.2532 32.3269 19.4952 32.1955 20.4361 31.9327C21.377 31.6323 22.0544 31.2569 22.4684 30.8063C22.9201 30.3182 23.1459 29.755 23.1459 29.1168C23.1459 28.2157 22.7319 27.5023 21.9039 26.9766C21.0759 26.451 20.0033 26.0192 18.6861 25.6813C17.3688 25.3434 15.901 25.0055 14.2827 24.6676C12.702 24.3297 11.1025 23.8979 9.48416 23.3723C7.90347 22.8466 6.4545 22.1708 5.13725 21.3448C3.82001 20.4812 2.7474 19.3736 1.91941 18.022C1.09143 16.6328 0.67744 14.8869 0.67744 12.7843C0.67744 10.419 1.31724 8.27885 2.59685 6.36401C3.9141 4.44918 5.87115 2.9098 8.468 1.74588C11.0649 0.58196 14.3015 0 18.178 0C20.7748 0 23.3152 0.300367 25.7992 0.901101C28.3208 1.46429 30.5601 2.30907 32.5171 3.43544L29.0735 11.7143C27.1917 10.7005 25.3287 9.94963 23.4846 9.46154C21.6404 8.9359 19.8528 8.67308 18.1215 8.67308C16.5785 8.67308 15.3365 8.84203 14.3956 9.17995C13.4547 9.48031 12.7773 9.89331 12.3633 10.419C11.9493 10.9446 11.7423 11.5453 11.7423 12.2212C11.7423 13.0847 12.1375 13.7793 12.9278 14.3049C13.7558 14.793 14.8284 15.206 16.1457 15.544C17.5005 15.8443 18.9683 16.1635 20.549 16.5014C22.1673 16.8393 23.7669 17.2711 25.3475 17.7967C26.9659 18.2848 28.4337 18.9606 29.7509 19.8242C31.0681 20.6502 32.1219 21.7578 32.9123 23.147C33.7403 24.4986 34.1543 26.207 34.1543 28.272C34.1543 30.5623 33.4956 32.6836 32.1784 34.636C30.8988 36.5508 28.9606 38.0902 26.3637 39.2541C23.8045 40.418 20.5678 41 16.6537 41Z" fill="white"/>
<path d="M59.0198 41C55.896 41 52.9981 40.5119 50.3259 39.5357C47.6914 38.522 45.3957 37.0952 43.4386 35.2555C41.5192 33.4158 40.0138 31.2569 38.9224 28.7788C37.8309 26.2633 37.2852 23.5037 37.2852 20.5C37.2852 17.4963 37.8309 14.7555 38.9224 12.2775C40.0138 9.7619 41.5192 7.58425 43.4386 5.7445C45.3957 3.90476 47.6914 2.4968 50.3259 1.5206C52.9981 0.506868 55.896 0 59.0198 0C62.6704 0 65.9259 0.638279 68.7862 1.91484C71.6841 3.19139 74.0928 5.03114 76.0122 7.43407L68.8991 13.8544C67.6195 12.3526 66.2081 11.2074 64.6651 10.419C63.1597 9.6305 61.4661 9.23627 59.5843 9.23627C57.966 9.23627 56.4793 9.49909 55.1245 10.0247C53.7696 10.5504 52.6029 11.3201 51.6244 12.3338C50.6835 13.31 49.9308 14.4927 49.3662 15.8819C48.8393 17.2711 48.5759 18.8104 48.5759 20.5C48.5759 22.1896 48.8393 23.7289 49.3662 25.1181C49.9308 26.5073 50.6835 27.7088 51.6244 28.7225C52.6029 29.6987 53.7696 30.4496 55.1245 30.9753C56.4793 31.5009 57.966 31.7637 59.5843 31.7637C61.4661 31.7637 63.1597 31.3695 64.6651 30.581C66.2081 29.7926 67.6195 28.6474 68.8991 27.1456L76.0122 33.5659C74.0928 35.9313 71.6841 37.7711 68.7862 39.0852C65.9259 40.3617 62.6704 41 59.0198 41Z" fill="white"/>
<path d="M80.996 40.2115V0.788461H99.061C102.674 0.788461 105.779 1.37042 108.376 2.53434C111.01 3.69826 113.043 5.38782 114.473 7.60302C115.903 9.78068 116.618 12.3713 116.618 15.375C116.618 18.3411 115.903 20.913 114.473 23.0907C113.043 25.2683 111.01 26.9579 108.376 28.1593C105.779 29.3233 102.674 29.9052 99.061 29.9052H87.2058L92.1737 25.0618V40.2115H80.996ZM92.1737 26.2445L87.2058 21.1195H98.3836C100.717 21.1195 102.448 20.6126 103.577 19.5989C104.744 18.5852 105.327 17.1772 105.327 15.375C105.327 13.5353 104.744 12.1085 103.577 11.0948C102.448 10.081 100.717 9.57418 98.3836 9.57418H87.2058L92.1737 4.44918V26.2445Z" fill="white"/>
<path d="M158.976 41C155.815 41 152.898 40.4931 150.226 39.4794C147.554 38.4657 145.22 37.0389 143.226 35.1992C141.269 33.3219 139.744 31.1442 138.653 28.6662C137.561 26.1882 137.016 23.4661 137.016 20.5C137.016 17.5339 137.561 14.8118 138.653 12.3338C139.744 9.85577 141.269 7.69689 143.226 5.85714C145.22 3.97985 147.554 2.53434 150.226 1.5206C152.898 0.506868 155.815 0 158.976 0C162.175 0 165.092 0.506868 167.726 1.5206C170.398 2.53434 172.713 3.97985 174.67 5.85714C176.627 7.69689 178.151 9.85577 179.243 12.3338C180.372 14.8118 180.936 17.5339 180.936 20.5C180.936 23.4661 180.372 26.207 179.243 28.7225C178.151 31.2006 176.627 33.3594 174.67 35.1992C172.713 37.0389 170.398 38.4657 167.726 39.4794C165.092 40.4931 162.175 41 158.976 41ZM158.976 31.7637C160.482 31.7637 161.874 31.5009 163.154 30.9753C164.471 30.4496 165.6 29.6987 166.541 28.7225C167.519 27.7088 168.272 26.5073 168.799 25.1181C169.364 23.7289 169.646 22.1896 169.646 20.5C169.646 18.7729 169.364 17.2335 168.799 15.8819C168.272 14.4927 167.519 13.31 166.541 12.3338C165.6 11.3201 164.471 10.5504 163.154 10.0247C161.874 9.49909 160.482 9.23627 158.976 9.23627C157.471 9.23627 156.059 9.49909 154.742 10.0247C153.462 10.5504 152.333 11.3201 151.355 12.3338C150.414 13.31 149.661 14.4927 149.097 15.8819C148.57 17.2335 148.306 18.7729 148.306 20.5C148.306 22.1896 148.57 23.7289 149.097 25.1181C149.661 26.5073 150.414 27.7088 151.355 28.7225C152.333 29.6987 153.462 30.4496 154.742 30.9753C156.059 31.5009 157.471 31.7637 158.976 31.7637Z" fill="white"/>
<path d="M186.791 40.2115V0.788461H195.993L217.784 27.033H213.437V0.788461H224.389V40.2115H215.187L193.396 13.967H197.743V40.2115H186.791Z" fill="white"/>
<path d="M242.548 16.0508H260.895V24.386H242.548V16.0508ZM243.338 31.5948H264V40.2115H232.273V0.788461H263.266V9.40522H243.338V31.5948Z" fill="white"/>
<defs>
<linearGradient id="paint0_linear_863_46" x1="126.5" y1="26" x2="126.5" y2="42" gradientUnits="userSpaceOnUse">
<stop stop-color="#0295DD"/>
<stop offset="1" stop-color="white" stop-opacity="0"/>
</linearGradient>
</defs>
</svg>
